<?xml version="1.0" encoding="UTF-8" standalone="no"?>
<svg xmlns="http://www.w3.org/2000/svg" xmlns:xlink="http://www.w3.org/1999/xlink" xml:space="preserve" width="208" height="303" version="1.0" viewBox="0 0 167.08643 242.66748">
  <path fill="#fff" stroke="#000" stroke-width=".5" d="M166.83643 235.89281c0 3.79171-3.08594 6.8909-6.87011 6.8909H7.1113279C3.3359375 242.78371.25 239.68452.25 235.89281V6.7746656c0-3.78632 3.0859375-6.89089653 6.8613279-6.89089653H159.96632c3.78417 0 6.87011 3.10457653 6.87011 6.89089653V235.89281z"/>
  <path fill="#e61408" d="M11.9818149 26.0429688v-1.46875h.661621l3.032715-16.5624996h1.280762l3.044921 16.5624996h.761231v1.46875h-3.77002v-1.46875h.785645l-.664551-3.6875h-3.020996l-.676269 3.6875h.966308v1.46875h-2.401367zm2.377441-6.625h2.48877l-1.232422-6.884765-1.256348 6.884765zm140.7453592 197.2065424v1.46875h-.66113l-3.0332 16.5625h-1.28125l-3.04493-16.5625h-.76074v-1.46875h3.77051v1.46875h-.78613l.66504 3.6875h3.0205l.67676-3.6875h-.96679v-1.46875h2.40136zm-2.37793 6.625h-2.48828l1.23242 6.88477 1.25586-6.88477zM83.543209 105.46857c-.02611.89581-.557741 4.25531-6.35109 9.81532-5.575661 5.35112-8.17932 5.99351-8.96181 6.04986.78249.05634 3.386149.69875 8.96181 6.04985 5.793349 5.56001 6.32498 8.9195 6.35109 9.81532.02613-.89581.55775-4.2553 6.351099-9.81532 5.575669-5.35111 8.17932-5.99352 8.961814-6.04985-.782494-.05634-3.386145-.69875-8.961814-6.04986-5.793349-5.56-6.324969-8.9195-6.351099-9.81532z"/>
  <path id="a" fill="#e61408" fill-opacity="1" stroke="none" stroke-dasharray="none" stroke-linecap="round" stroke-linejoin="round" stroke-miterlimit="4" stroke-opacity="1" stroke-width="1.49999988" d="M16.372445 29.520358c-.00785.269356-.16771 1.279506-1.90968 2.951315-1.67651 1.609-2.45939 1.802156-2.69468 1.8191.23529.016941 1.01817.210103 2.69468 1.819097 1.74197 1.671809 1.90183 2.681956 1.90968 2.951315.00785-.269356.16771-1.279503 1.90967-2.951315 1.67652-1.608997 2.4594-1.802159 2.69468-1.819097-.23528-.016941-1.01816-.210103-2.69468-1.8191-1.74196-1.671806-1.90182-2.681956-1.90967-2.951315z"/>
  <use xlink:href="#a" width="167.08643" height="242.66748" transform="translate(134.34155 173.78052)"/>
</svg>