<?xml version="1.0" encoding="UTF-8" standalone="no"?>
<svg xmlns="http://www.w3.org/2000/svg" xmlns:xlink="http://www.w3.org/1999/xlink" xml:space="preserve" width="208" height="303" version="1.0" viewBox="0 0 167.08643 242.66748">
  <path d="M166.83643 235.89281c0 3.79171-3.08594 6.8909-6.87011 6.8909H7.1113279C3.3359375 242.78371.25 239.68452.25 235.89281V6.7746656c0-3.78632 3.0859375-6.89089653 6.8613279-6.89089653H159.96632c3.78417 0 6.87011 3.10457653 6.87011 6.89089653V235.89281z" style="fill:#fff;fill-rule:nonzero;stroke:#000;stroke-width:.5;stroke-miterlimit:4"/>
  <g style="fill-rule:nonzero;stroke:#000;stroke-miterlimit:4" transform="translate(.9940219 .2158208)">
    <path stroke="none" d="M10.987793 25.827148v-1.46875h.661621l3.032715-16.5624996h1.280762l3.044921 16.5624996h.761231v1.46875h-3.77002v-1.46875h.785645l-.664551-3.6875h-3.020996l-.676269 3.6875h.966308v1.46875h-2.401367zm2.377441-6.625h2.48877l-1.232422-6.884765-1.256348 6.884765z" style="stroke:none"/>
  </g>
  <g style="fill-rule:nonzero;stroke:#000;stroke-miterlimit:4" transform="translate(-.4061249 .2153312)">
    <path stroke="none" d="M155.51074 216.40918v1.46875h-.66113l-3.0332 16.5625h-1.28125l-3.04493-16.5625h-.76074v-1.46875H150.5v1.46875h-.78613l.66504 3.6875h3.0205l.67676-3.6875h-.96679v-1.46875h2.40136zm-2.37793 6.625h-2.48828l1.23242 6.88477 1.25586-6.88477z" style="stroke:none"/>
  </g>
  <path d="M83.543215 104.80333c-3.184571 5.73145-14.037184 10.98218-14.057752 18.22487-.009712 3.41991 3.146062 6.17537 7.028876 6.17537 2.473515 0 4.671438-1.11009 5.924338-2.81155-.523428 4.92437-1.927391 10.42786-7.053979 11.47213h16.317034c-5.126582-1.04427-6.530551-6.54776-7.053979-11.47213 1.252905 1.70146 3.450823 2.81155 5.924338 2.81155 3.882818 0 7.038587-2.75546 7.028876-6.17537-.020566-7.24269-10.873181-12.49342-14.057752-18.22487z" style="fill-rule:nonzero;stroke:none;stroke-miterlimit:4"/>
  <path id="a" d="M16.372439 29.321959c-.957238 1.722794-4.216463 3.301099-4.225565 5.478145 0 1.027984.945663 1.856231 2.112783 1.856231.743504 0 1.404169-.333678 1.780774-.845113-.157336 1.480197-.579347 3.13447-2.120329 3.448363h4.904675c-1.54098-.313893-1.962994-1.968166-2.120329-3.448363.376606.511435 1.03727.845113 1.780774.845113 1.167121 0 2.112783-.828247 2.112783-1.856231-.009101-2.177046-3.268328-3.755351-4.225566-5.478145z" style="fill-rule:nonzero;stroke:none;stroke-miterlimit:4"/>
  <use xlink:href="#a" width="167.08643" height="242.66748" transform="matrix(1 0 0 -1 134.34155 242.36206)"/>
</svg>