<?xml version="1.0" encoding="UTF-8" standalone="no"?>
<svg xmlns="http://www.w3.org/2000/svg" xmlns:xlink="http://www.w3.org/1999/xlink" xml:space="preserve" width="208" height="303" version="1.0" viewBox="0 0 167.08643 242.66748">
  <path fill="#fff" stroke="#000" stroke-width=".5" d="M166.83643 235.89281c0 3.79171-3.08594 6.8909-6.87011 6.8909H7.1113279C3.3359375 242.78371.25 239.68452.25 235.89281V6.7746656c0-3.78632 3.0859375-6.89089653 6.8613279-6.89089653H159.96632c3.78417 0 6.87011 3.10457653 6.87011 6.89089653V235.89281z"/>
  <use xlink:href="#a" width="167.08643" height="242.66748" transform="rotate(180 83.543215 121.18103)"/>
  <use xlink:href="#b" id="a" width="167.08643" height="242.66748" x="0" y="0" transform="translate(-8.7477182 -2.1924149) scale(.30068)"/>
  <path id="b" fill="#000" fill-opacity="1" stroke="none" stroke-linecap="round" stroke-linejoin="round" stroke-miterlimit="4" stroke-opacity="1" stroke-width="1.5" d="M83.468215 104.80874c-3.79776 0-6.875002 3.07724-6.875 6.875 0 1.96016.833225 3.72148 2.15 4.975 1.017544.96866 2.467168 3.16423 2.95 4.925-.941824-.56759-1.790184-1.21446-2.3-1.75-1.253521-1.31678-3.014848-2.125-4.975-2.125-3.797761 0-6.875 3.07724-6.875 6.875-.000001 3.79776 3.07724 6.875 6.875 6.875 1.960159 0 3.72148-.83322 4.975-2.15.537552-.56469 1.446272-1.2792 2.45-1.875-.140792 6.30515-2.304704 10.425-6.25 10.425h15.775c-3.955808 0-6.144768-4.14143-6.275-10.475 1.05816.60735 2.04176 1.33858 2.6 1.925 1.253504 1.31678 3.014864 2.15 4.975 2.15 3.79772 0 6.875-3.07724 6.875-6.875s-3.07728-6.875-6.875-6.875c-1.960128 0-3.721496.80822-4.975 2.125-.530824.55761-1.45276 1.21889-2.45 1.8.467736-1.76943 1.947304-3.99666 2.975-4.975 1.316776-1.25352 2.125-3.01485 2.125-4.975 0-3.79776-3.07724-6.875-6.875-6.875z"/>
  <path d="M11.9818149 26.0429688v-1.46875h.661621l3.032715-16.5624996h1.280762l3.044921 16.5624996h.761231v1.46875h-3.77002v-1.46875h.785645l-.664551-3.6875h-3.020996l-.676269 3.6875h.966308v1.46875h-2.401367zm2.377441-6.625h2.48877l-1.232422-6.884765-1.256348 6.884765zm140.7453592 197.2065424v1.46875h-.66113l-3.0332 16.5625h-1.28125l-3.04493-16.5625h-.76074v-1.46875h3.77051v1.46875h-.78613l.66504 3.6875h3.0205l.67676-3.6875h-.96679v-1.46875h2.40136zm-2.37793 6.625h-2.48828l1.23242 6.88477 1.25586-6.88477z"/>
</svg>