<?xml version="1.0" encoding="UTF-8" standalone="no"?>
<svg xmlns="http://www.w3.org/2000/svg" xmlns:xlink="http://www.w3.org/1999/xlink" xml:space="preserve" width="208" height="303" version="1.0" viewBox="0 0 167.08643 242.66748">
  <path fill="#fff" stroke="#000" stroke-width=".5" d="M166.83643 235.89281c0 3.79171-3.08594 6.8909-6.87011 6.8909H7.1113279C3.3359375 242.78371.25 239.68452.25 235.89281V6.7746664c0-3.78632 3.0859375-6.89089651 6.8613279-6.89089651H159.96632c3.78417 0 6.87011 3.10457651 6.87011 6.89089651V235.89281z"/>
  <path fill="#e61408" d="M18.7161899 7.6679688v3.1562502h-4.28125v3.974609c.240235-.414551.504883-.727539.793457-.938965.288575-.210937.593262-.316894.914063-.316894.99414 0 1.775391.562012 2.344727 1.685059.569336 1.123046.854003 2.650878.854003 4.583007 0 1.964844-.285644 3.494629-.856933 4.589356-.571289 1.095215-1.375977 1.642578-2.413574 1.642578-.434571 0-.869141-.081543-1.303711-.243652-.434571-.162598-.888672-.414551-1.363282-.756348v-3.9375h.65625c.023926 1.189453.163086 2.075195.416993 2.657715.253906.582519.626464.873535 1.117675.873535.531739 0 .924317-.395996 1.178223-1.188477.253906-.79248.380859-2.001464.380859-3.626464 0-1.600586-.124511-2.797364-.373535-3.589844-.249023-.792481-.626465-1.188965-1.132324-1.188965-.273437 0-.516113.126465-.729004.378906-.21289.25293-.411621.643555-.596191 1.172852h-.543946V7.6679688h4.937501-.000001zm129.6540502 227.3315424v-3.15625h4.28125v-3.97461c-.24023.41504-.50586.72852-.79394.93946-.28809.21094-.59278.3164-.91407.3164-.99414 0-1.77539-.56152-2.34472-1.68457-.56934-1.12304-.85352-2.65136-.85352-4.583 0-1.96485.28516-3.49414.85645-4.58985.57129-1.09472 1.37597-1.64258 2.41308-1.64258.43555 0 .86914.08204 1.30469.24414.43359.16211.88867.41407 1.36328.75586v3.9375h-.65625c-.02441-1.18945-.16406-2.07421-.41797-2.65722-.2539-.58301-.62597-.87403-1.11719-.87403-.53125 0-.92382.39649-1.17773 1.18946-.25391.79199-.38086 2.00097-.38086 3.62597 0 1.60059.12402 2.79786.37305 3.58985.24902.79199.62695 1.18847 1.13281 1.18847.27344 0 .51563-.12597.72852-.3789.21289-.25196.41211-.64258.5957-1.17188h.54492v8.92578h-4.9375z"/>
  <path id="b" fill="#e61408" fill-opacity="1" stroke="none" stroke-dasharray="none" stroke-linecap="round" stroke-linejoin="round" stroke-miterlimit="4" stroke-opacity="1" stroke-width="1.49999988" d="M47.737641 13.605875c-.02611.89581-.55774 4.2553-6.35109 9.81532-5.57566 5.35111-8.17932 5.99351-8.96181 6.04985.78249.05635 3.38615.69875 8.96181 6.04986 5.79335 5.56 6.32498 8.91949 6.35109 9.81532.02613-.89581.55775-4.2553 6.3511-9.81532 5.57567-5.35111 8.17932-5.99352 8.96181-6.04986-.78249-.05634-3.38614-.69874-8.96181-6.04985-5.79335-5.56-6.32497-8.9195-6.3511-9.81532z"/>
  <path id="a" fill="#e61408" fill-opacity="1" stroke="none" stroke-dasharray="none" stroke-linecap="round" stroke-linejoin="round" stroke-miterlimit="4" stroke-opacity="1" stroke-width="1.49999988" d="M16.372445 29.520358c-.00785.269356-.16771 1.279506-1.90968 2.951315-1.67651 1.609-2.45939 1.802156-2.69468 1.8191.23529.016941 1.01817.210103 2.69468 1.819097 1.74197 1.671809 1.90183 2.681956 1.90968 2.951315.00785-.269356.16771-1.279503 1.90967-2.951315 1.67652-1.608997 2.4594-1.802159 2.69468-1.819097-.23528-.016941-1.01816-.210103-2.69468-1.8191-1.74196-1.671806-1.90182-2.681956-1.90967-2.951315z"/>
  <use xlink:href="#a" width="167.08643" height="242.66748" transform="translate(134.34155 173.78052)"/>
  <use xlink:href="#b" id="c" width="167.08643" height="242.66748" x="0" y="0" transform="translate(70.670399 .000005)"/>
  <use xlink:href="#c" id="d" width="167.08643" height="242.66748" x="0" y="0" transform="translate(-34.86483 91.862685)"/>
  <use xlink:href="#d" id="e" width="167.08643" height="242.66748" x="0" y="0" transform="translate(-35.805575 91.840485)"/>
  <use xlink:href="#e" width="167.08643" height="242.66748" transform="translate(70.670399)"/>
</svg>